# xmcd
#
# Track frame offsets:
#	150
#	11210
#	22040
#	34867
#	44895
#	55330
#	65707
#	76390
#	84905
#	95100
#	106862
#	118330
#	128692
#	139997
#	150635
#	163877
#
# Disc length: 2344 seconds
#
# Revision: 0
# Processed by: cddbd v1.5.2PL0 Copyright (c) Steve Scherf et al.
# Submitted via: audiograbber 1.83.01
#
DISCID=e6092610
DTITLE=Various Artist - American Jukebox Rockabilly vol 2
DYEAR=1996
DGENRE=audio
TTITLE0=Dixie Fried
TTITLE1=Sally Was a Good Old Girl
TTITLE2=Shake, Rattle, and Roll
TTITLE3=Suzy Q
TTITLE4=Ooby Dooby
TTITLE5=Party Doll
TTITLE6=Rocky Road Blues
TTITLE7=Great Balls of Fire
TTITLE8=Blue Suede Shoes
TTITLE9=Maybelline
TTITLE10=Born to Boogie
TTITLE11=Good Golly Miss Molly
TTITLE12=Mean Woman Blues
TTITLE13=ABC Boogie
TTITLE14=Matchbox
TTITLE15=Be Bop-a-Lula
EXTD=
EXTT0=
EXTT1=
EXTT2=
EXTT3=
EXTT4=
EXTT5=
EXTT6=
EXTT7=
EXTT8=
EXTT9=
EXTT10=
EXTT11=
EXTT12=
EXTT13=
EXTT14=
EXTT15=
PLAYORDER=
